<?xml version="1.0" standalone="no"?>
<!DOCTYPE svg PUBLIC "-//W3C//DTD SVG 20010904//EN"
 "http://www.w3.org/TR/2001/REC-SVG-20010904/DTD/svg10.dtd">
<svg version="1.0" xmlns="http://www.w3.org/2000/svg"
 width="512.000000pt" height="512.000000pt" viewBox="0 0 512.000000 512.000000"
 preserveAspectRatio="xMidYMid meet">
<metadata>
Created by potrace 1.14, written by Peter Selinger 2001-2017
</metadata>
<g transform="translate(0.000000,512.000000) scale(0.100000,-0.100000)"
fill="#000000" stroke="none">
<path d="M2257 5105 c-756 -92 -1432 -515 -1852 -1158 -188 -289 -320 -635
-381 -997 -22 -129 -30 -494 -15 -646 61 -605 331 -1164 762 -1579 418 -402
914 -640 1480 -710 160 -20 458 -19 619 0 824 102 1529 582 1940 1321 323 582
399 1314 204 1961 -205 679 -683 1244 -1319 1558 -275 136 -539 215 -843 250
-153 18 -445 18 -595 0z m588 -216 c433 -50 850 -228 1196 -510 477 -391 773
-927 850 -1544 20 -162 16 -456 -9 -621 -62 -400 -212 -753 -465 -1089 -78
-103 -319 -344 -422 -422 -338 -255 -680 -399 -1096 -464 -173 -26 -489 -28
-654 -4 -433 64 -774 207 -1117 467 -104 78 -304 273 -385 373 -351 435 -525
928 -525 1490 -1 384 72 698 242 1040 192 388 509 734 880 960 446 272 973
385 1505 324z"/>
<path d="M2295 4689 c-312 -43 -664 -174 -918 -343 -525 -350 -870 -907 -947
-1526 -15 -127 -12 -422 6 -551 85 -610 427 -1158 933 -1491 367 -242 752
-358 1191 -358 357 0 646 67 955 223 574 288 975 792 1129 1418 52 214 72 526
46 739 -48 397 -216 799 -457 1100 -265 329 -668 599 -1069 715 -218 63 -312
77 -564 80 -129 2 -266 -1 -305 -6z m1103 -1877 c304 -753 552 -1372 552
-1375 0 -4 -149 -6 -331 -5 l-331 3 -101 273 -100 272 -527 0 -527 0 -100
-272 -101 -273 -332 -3 c-314 -2 -332 -1 -327 15 2 10 172 432 376 938 205
506 451 1117 548 1358 l176 437 287 0 287 0 551 -1368z"/>
<path d="M2408 2948 c-81 -211 -150 -391 -154 -400 -6 -17 13 -18 306 -18 293
0 312 1 306 18 -91 242 -302 782 -306 782 -3 0 -71 -172 -152 -382z"/>
</g>
</svg>
